<svg xmlns="http://www.w3.org/2000/svg" width="800" height="300"><path d="M375,160L345,117L318,134Z" fill="#ba6938" stroke="#ba6938" stroke-width="1.51"/><path d="M318,134L286,163L375,160Z" fill="#b46738" stroke="#b46738" stroke-width="1.51"/><path d="M345,117L323,75L318,134Z" fill="#d57234" stroke="#d57234" stroke-width="1.51"/><path d="M318,134L242,95L286,163Z" fill="#d27035" stroke="#d27035" stroke-width="1.51"/><path d="M367,66L323,75L345,117Z" fill="#c96c38" stroke="#c96c38" stroke-width="1.51"/><path d="M425,111L367,66L345,117Z" fill="#cb6e36" stroke="#cb6e36" stroke-width="1.51"/><path d="M375,160L425,111L345,117Z" fill="#b66838" stroke="#b66838" stroke-width="1.51"/><path d="M410,257L430,162L375,160Z" fill="#81553c" stroke="#81553c" stroke-width="1.51"/><path d="M430,162L425,111L375,160Z" fill="#a3613a" stroke="#a3613a" stroke-width="1.51"/><path d="M425,111L415,75L367,66Z" fill="#b6663b" stroke="#b6663b" stroke-width="1.51"/><path d="M286,163L318,251L375,160Z" fill="#975d3b" stroke="#975d3b" stroke-width="1.51"/><path d="M318,251L362,257L375,160Z" fill="#905f3b" stroke="#905f3b" stroke-width="1.51"/><path d="M323,75L259,71L318,134Z" fill="#dd7334" stroke="#dd7334" stroke-width="1.51"/><path d="M322,-15L259,71L323,75Z" fill="#aa5e41" stroke="#aa5e41" stroke-width="1.51"/><path d="M259,71L242,95L318,134Z" fill="#ec7931" stroke="#ec7931" stroke-width="1.51"/><path d="M286,163L260,250L318,251Z" fill="#a26539" stroke="#a26539" stroke-width="1.51"/><path d="M362,257L410,257L375,160Z" fill="#885e3b" stroke="#885e3b" stroke-width="1.51"/><path d="M218,191L260,250L286,163Z" fill="#9e5f3b" stroke="#9e5f3b" stroke-width="1.51"/><path d="M318,251L320,302L362,257Z" fill="#a37137" stroke="#a37137" stroke-width="1.51"/><path d="M242,95L218,191L286,163Z" fill="#c16a38" stroke="#c16a38" stroke-width="1.51"/><path d="M430,162L518,97L425,111Z" fill="#a5623a" stroke="#a5623a" stroke-width="1.51"/><path d="M425,111L493,49L415,75Z" fill="#a55f3d" stroke="#a55f3d" stroke-width="1.51"/><path d="M410,257L490,185L430,162Z" fill="#71503d" stroke="#71503d" stroke-width="1.51"/><path d="M242,95L196,116L218,191Z" fill="#c1693a" stroke="#c1693a" stroke-width="1.51"/><path d="M183,50L196,116L242,95Z" fill="#c96a3c" stroke="#c96a3c" stroke-width="1.51"/><path d="M260,250L320,302L318,251Z" fill="#ac7336" stroke="#ac7336" stroke-width="1.51"/><path d="M362,257L349,322L410,257Z" fill="#9a6f38" stroke="#9a6f38" stroke-width="1.51"/><path d="M367,66L322,-15L323,75Z" fill="#9f5a43" stroke="#9f5a43" stroke-width="1.51"/><path d="M415,75L377,-7L367,66Z" fill="#935643" stroke="#935643" stroke-width="1.51"/><path d="M446,-21L377,-7L415,75Z" fill="#6f4848" stroke="#6f4848" stroke-width="1.51"/><path d="M377,-7L322,-15L367,66Z" fill="#7e4d47" stroke="#7e4d47" stroke-width="1.51"/><path d="M259,71L183,50L242,95Z" fill="#c2663e" stroke="#c2663e" stroke-width="1.51"/><path d="M320,302L349,322L362,257Z" fill="#a77836" stroke="#a77836" stroke-width="1.51"/><path d="M410,257L509,248L490,185Z" fill="#71563d" stroke="#71563d" stroke-width="1.51"/><path d="M260,250L241,288L320,302Z" fill="#b77a34" stroke="#b77a34" stroke-width="1.51"/><path d="M320,302L348,358L349,322Z" fill="#aa7a35" stroke="#aa7a35" stroke-width="1.51"/><path d="M188,227L241,288L260,250Z" fill="#a36c3a" stroke="#a36c3a" stroke-width="1.51"/><path d="M188,227L260,250L218,191Z" fill="#97603d" stroke="#97603d" stroke-width="1.51"/><path d="M164,160L188,227L218,191Z" fill="#8a5640" stroke="#8a5640" stroke-width="1.51"/><path d="M518,97L493,49L425,111Z" fill="#a35f3c" stroke="#a35f3c" stroke-width="1.51"/><path d="M490,185L518,97L430,162Z" fill="#8d593c" stroke="#8d593c" stroke-width="1.51"/><path d="M196,116L164,160L218,191Z" fill="#a7603e" stroke="#a7603e" stroke-width="1.51"/><path d="M322,-15L241,-2L259,71Z" fill="#995647" stroke="#995647" stroke-width="1.51"/><path d="M196,116L100,108L164,160Z" fill="#ad603f" stroke="#ad603f" stroke-width="1.51"/><path d="M241,-2L183,50L259,71Z" fill="#a15945" stroke="#a15945" stroke-width="1.51"/><path d="M444,332L509,248L410,257Z" fill="#83673a" stroke="#83673a" stroke-width="1.51"/><path d="M490,185L548,105L518,97Z" fill="#905b3c" stroke="#905b3c" stroke-width="1.51"/><path d="M493,49L446,-21L415,75Z" fill="#774c45" stroke="#774c45" stroke-width="1.51"/><path d="M377,-7L369,-62L322,-15Z" fill="#6f474a" stroke="#6f474a" stroke-width="1.51"/><path d="M509,248L542,197L490,185Z" fill="#5f4c3e" stroke="#5f4c3e" stroke-width="1.51"/><path d="M518,97L549,44L493,49Z" fill="#815241" stroke="#815241" stroke-width="1.51"/><path d="M493,49L493,-9L446,-21Z" fill="#523f4a" stroke="#523f4a" stroke-width="1.51"/><path d="M542,197L548,105L490,185Z" fill="#75513d" stroke="#75513d" stroke-width="1.51"/><path d="M349,322L444,332L410,257Z" fill="#987337" stroke="#987337" stroke-width="1.51"/><path d="M349,322L438,363L444,332Z" fill="#957237" stroke="#957237" stroke-width="1.51"/><path d="M316,387L348,358L320,302Z" fill="#ad7b35" stroke="#ad7b35" stroke-width="1.51"/><path d="M439,-61L369,-62L377,-7Z" fill="#63434a" stroke="#63434a" stroke-width="1.51"/><path d="M283,-84L236,-65L241,-2Z" fill="#834d4a" stroke="#834d4a" stroke-width="1.51"/><path d="M446,-21L439,-61L377,-7Z" fill="#5c414a" stroke="#5c414a" stroke-width="1.51"/><path d="M549,44L493,-9L493,49Z" fill="#5f4447" stroke="#5f4447" stroke-width="1.51"/><path d="M164,160L129,181L188,227Z" fill="#825241" stroke="#825241" stroke-width="1.51"/><path d="M188,227L163,297L241,288Z" fill="#9c6c3c" stroke="#9c6c3c" stroke-width="1.51"/><path d="M100,108L129,181L164,160Z" fill="#945742" stroke="#945742" stroke-width="1.51"/><path d="M518,303L546,251L509,248Z" fill="#6c5c3c" stroke="#6c5c3c" stroke-width="1.51"/><path d="M509,248L546,251L542,197Z" fill="#60503d" stroke="#60503d" stroke-width="1.51"/><path d="M542,197L628,163L548,105Z" fill="#7d573c" stroke="#7d573c" stroke-width="1.51"/><path d="M615,33L549,44L548,105Z" fill="#7f5441" stroke="#7f5441" stroke-width="1.51"/><path d="M548,105L549,44L518,97Z" fill="#90593e" stroke="#90593e" stroke-width="1.51"/><path d="M475,-96L439,-61L493,-9Z" fill="#4e3d4a" stroke="#4e3d4a" stroke-width="1.51"/><path d="M493,-9L439,-61L446,-21Z" fill="#513e4a" stroke="#513e4a" stroke-width="1.51"/><path d="M444,332L518,303L509,248Z" fill="#7d683a" stroke="#7d683a" stroke-width="1.51"/><path d="M348,358L438,363L349,322Z" fill="#9f7637" stroke="#9f7637" stroke-width="1.51"/><path d="M444,332L515,351L518,303Z" fill="#7e6a3a" stroke="#7e6a3a" stroke-width="1.51"/><path d="M183,50L100,108L196,116Z" fill="#bc643f" stroke="#bc643f" stroke-width="1.51"/><path d="M241,-2L155,12L183,50Z" fill="#804b4a" stroke="#804b4a" stroke-width="1.51"/><path d="M196,-68L155,12L241,-2Z" fill="#6e454d" stroke="#6e454d" stroke-width="1.51"/><path d="M257,381L316,387L320,302Z" fill="#b67e33" stroke="#b67e33" stroke-width="1.51"/><path d="M108,236L163,297L188,227Z" fill="#865f41" stroke="#865f41" stroke-width="1.51"/><path d="M283,-84L322,-15L369,-62Z" fill="#784a4a" stroke="#784a4a" stroke-width="1.51"/><path d="M283,-84L241,-2L322,-15Z" fill="#844d49" stroke="#844d49" stroke-width="1.51"/><path d="M257,381L320,302L241,288Z" fill="#bd8132" stroke="#bd8132" stroke-width="1.51"/><path d="M348,358L316,387L438,363Z" fill="#a27736" stroke="#a27736" stroke-width="1.51"/><path d="M475,-96L283,-84L369,-62Z" fill="#69454a" stroke="#69454a" stroke-width="1.51"/><path d="M178,371L257,381L241,288Z" fill="#af7b37" stroke="#af7b37" stroke-width="1.51"/><path d="M108,39L100,108L183,50Z" fill="#975547" stroke="#975547" stroke-width="1.51"/><path d="M129,181L108,236L188,227Z" fill="#775142" stroke="#775142" stroke-width="1.51"/><path d="M41,188L108,236L129,181Z" fill="#614646" stroke="#614646" stroke-width="1.51"/><path d="M130,0L108,39L155,12Z" fill="#65414e" stroke="#65414e" stroke-width="1.51"/><path d="M155,12L108,39L183,50Z" fill="#7e4a4b" stroke="#7e4a4b" stroke-width="1.51"/><path d="M134,-55L130,0L155,12Z" fill="#573c50" stroke="#573c50" stroke-width="1.51"/><path d="M236,-65L196,-68L241,-2Z" fill="#78484c" stroke="#78484c" stroke-width="1.51"/><path d="M283,-84L196,-68L236,-65Z" fill="#7d4b4b" stroke="#7d4b4b" stroke-width="1.51"/><path d="M571,395L515,351L438,363Z" fill="#79683b" stroke="#79683b" stroke-width="1.51"/><path d="M438,363L515,351L444,332Z" fill="#866d39" stroke="#866d39" stroke-width="1.51"/><path d="M518,303L576,310L546,251Z" fill="#71633b" stroke="#71633b" stroke-width="1.51"/><path d="M540,-62L475,-96L493,-9Z" fill="#433a4a" stroke="#433a4a" stroke-width="1.51"/><path d="M439,-61L475,-96L369,-62Z" fill="#5a414a" stroke="#5a414a" stroke-width="1.51"/><path d="M163,297L178,371L241,288Z" fill="#a3753a" stroke="#a3753a" stroke-width="1.51"/><path d="M106,314L178,371L163,297Z" fill="#926d3f" stroke="#926d3f" stroke-width="1.51"/><path d="M515,351L576,310L518,303Z" fill="#73663b" stroke="#73663b" stroke-width="1.51"/><path d="M640,237L628,163L542,197Z" fill="#5f4f3e" stroke="#5f4f3e" stroke-width="1.51"/><path d="M53,50L67,110L100,108Z" fill="#995646" stroke="#995646" stroke-width="1.51"/><path d="M100,108L67,110L129,181Z" fill="#945644" stroke="#945644" stroke-width="1.51"/><path d="M53,50L100,108L108,39Z" fill="#864e4a" stroke="#864e4a" stroke-width="1.51"/><path d="M640,237L542,197L546,251Z" fill="#63543d" stroke="#63543d" stroke-width="1.51"/><path d="M572,-28L540,-62L493,-9Z" fill="#3a374a" stroke="#3a374a" stroke-width="1.51"/><path d="M572,-28L493,-9L549,44Z" fill="#3d394a" stroke="#3d394a" stroke-width="1.51"/><path d="M615,33L572,-28L549,44Z" fill="#514348" stroke="#514348" stroke-width="1.51"/><path d="M628,163L632,123L548,105Z" fill="#92613b" stroke="#92613b" stroke-width="1.51"/><path d="M27,256L106,314L108,236Z" fill="#6f5845" stroke="#6f5845" stroke-width="1.51"/><path d="M108,236L106,314L163,297Z" fill="#846442" stroke="#846442" stroke-width="1.51"/><path d="M632,123L615,33L548,105Z" fill="#9b633c" stroke="#9b633c" stroke-width="1.51"/><path d="M36,-32L53,50L108,39Z" fill="#4d3951" stroke="#4d3951" stroke-width="1.51"/><path d="M196,-68L134,-55L155,12Z" fill="#603f4f" stroke="#603f4f" stroke-width="1.51"/><path d="M702,116L670,47L632,123Z" fill="#ab6f38" stroke="#ab6f38" stroke-width="1.51"/><path d="M576,310L640,237L546,251Z" fill="#6f613b" stroke="#6f613b" stroke-width="1.51"/><path d="M67,110L41,188L129,181Z" fill="#794d46" stroke="#794d46" stroke-width="1.51"/><path d="M-24,198L-16,225L41,188Z" fill="#3b384a" stroke="#3b384a" stroke-width="1.51"/><path d="M36,-32L108,39L130,0Z" fill="#453652" stroke="#453652" stroke-width="1.51"/><path d="M572,-28L610,-30L540,-62Z" fill="#3e3b4a" stroke="#3e3b4a" stroke-width="1.51"/><path d="M540,-62L679,-90L475,-96Z" fill="#3d3a4a" stroke="#3d3a4a" stroke-width="1.51"/><path d="M615,33L610,-30L572,-28Z" fill="#413e4a" stroke="#413e4a" stroke-width="1.51"/><path d="M676,11L610,-30L615,33Z" fill="#4a444a" stroke="#4a444a" stroke-width="1.51"/><path d="M576,310L639,310L640,237Z" fill="#776b3a" stroke="#776b3a" stroke-width="1.51"/><path d="M515,351L571,395L576,310Z" fill="#74683b" stroke="#74683b" stroke-width="1.51"/><path d="M316,387L571,395L438,363Z" fill="#8c6f39" stroke="#8c6f39" stroke-width="1.51"/><path d="M622,387L639,310L576,310Z" fill="#7a6f3a" stroke="#7a6f3a" stroke-width="1.51"/><path d="M41,188L27,256L108,236Z" fill="#5a4848" stroke="#5a4848" stroke-width="1.51"/><path d="M106,314L104,385L178,371Z" fill="#8a6a41" stroke="#8a6a41" stroke-width="1.51"/><path d="M-16,225L27,256L41,188Z" fill="#494149" stroke="#494149" stroke-width="1.51"/><path d="M57,382L104,385L106,314Z" fill="#7b6344" stroke="#7b6344" stroke-width="1.51"/><path d="M178,371L104,385L257,381Z" fill="#9d723c" stroke="#9d723c" stroke-width="1.51"/><path d="M257,381L104,385L316,387Z" fill="#af7b37" stroke="#af7b37" stroke-width="1.51"/><path d="M316,387L104,385L571,395Z" fill="#ac7b35" stroke="#ac7b35" stroke-width="1.51"/><path d="M632,123L670,47L615,33Z" fill="#8d5f3f" stroke="#8d5f3f" stroke-width="1.51"/><path d="M702,116L632,123L628,163Z" fill="#95663a" stroke="#95663a" stroke-width="1.51"/><path d="M691,192L628,163L640,237Z" fill="#65553d" stroke="#65553d" stroke-width="1.51"/><path d="M697,224L691,192L640,237Z" fill="#6b5c3c" stroke="#6b5c3c" stroke-width="1.51"/><path d="M610,-30L637,-59L540,-62Z" fill="#413e4a" stroke="#413e4a" stroke-width="1.51"/><path d="M676,11L637,-59L610,-30Z" fill="#46424a" stroke="#46424a" stroke-width="1.51"/><path d="M670,47L676,11L615,33Z" fill="#685046" stroke="#685046" stroke-width="1.51"/><path d="M730,-12L676,11L670,47Z" fill="#5c4f48" stroke="#5c4f48" stroke-width="1.51"/><path d="M691,192L702,116L628,163Z" fill="#86633b" stroke="#86633b" stroke-width="1.51"/><path d="M27,256L38,331L106,314Z" fill="#6e5d46" stroke="#6e5d46" stroke-width="1.51"/><path d="M134,-55L36,-32L130,0Z" fill="#463751" stroke="#463751" stroke-width="1.51"/><path d="M-24,198L41,188L-29,100Z" fill="#59404a" stroke="#59404a" stroke-width="1.51"/><path d="M691,192L743,169L702,116Z" fill="#88673a" stroke="#88673a" stroke-width="1.51"/><path d="M696,318L697,224L640,237Z" fill="#76693b" stroke="#76693b" stroke-width="1.51"/><path d="M639,310L696,318L640,237Z" fill="#7c7039" stroke="#7c7039" stroke-width="1.51"/><path d="M571,395L622,387L576,310Z" fill="#786c3a" stroke="#786c3a" stroke-width="1.51"/><path d="M27,256L-16,308L38,331Z" fill="#5d5649" stroke="#5d5649" stroke-width="1.51"/><path d="M41,188L67,110L-29,100Z" fill="#7a4b48" stroke="#7a4b48" stroke-width="1.51"/><path d="M38,331L57,382L106,314Z" fill="#725f45" stroke="#725f45" stroke-width="1.51"/><path d="M-28,351L57,382L38,331Z" fill="#605848" stroke="#605848" stroke-width="1.51"/><path d="M-29,100L67,110L53,50Z" fill="#864e49" stroke="#864e49" stroke-width="1.51"/><path d="M-16,34L-29,100L53,50Z" fill="#61404f" stroke="#61404f" stroke-width="1.51"/><path d="M-13,12L-16,34L53,50Z" fill="#433551" stroke="#433551" stroke-width="1.51"/><path d="M-16,34L-73,72L-29,100Z" fill="#68424e" stroke="#68424e" stroke-width="1.51"/><path d="M36,-32L-13,12L53,50Z" fill="#2e3053" stroke="#2e3053" stroke-width="1.51"/><path d="M36,-32L-33,-87L-13,12Z" fill="#002955" stroke="#002955" stroke-width="1.51"/><path d="M134,-55L48,-94L36,-32Z" fill="#393352" stroke="#393352" stroke-width="1.51"/><path d="M196,-68L48,-94L134,-55Z" fill="#513a50" stroke="#513a50" stroke-width="1.51"/><path d="M283,-84L48,-94L196,-68Z" fill="#65414e" stroke="#65414e" stroke-width="1.51"/><path d="M475,-96L48,-94L283,-84Z" fill="#884f49" stroke="#884f49" stroke-width="1.51"/><path d="M697,224L743,169L691,192Z" fill="#6d5c3c" stroke="#6d5c3c" stroke-width="1.51"/><path d="M696,363L696,318L639,310Z" fill="#817638" stroke="#817638" stroke-width="1.51"/><path d="M-83,265L-16,308L-16,225Z" fill="#4e4a4a" stroke="#4e4a4a" stroke-width="1.51"/><path d="M-16,225L-16,308L27,256Z" fill="#4d494a" stroke="#4d494a" stroke-width="1.51"/><path d="M756,237L743,169L697,224Z" fill="#6e613c" stroke="#6e613c" stroke-width="1.51"/><path d="M702,116L743,100L670,47Z" fill="#a87039" stroke="#a87039" stroke-width="1.51"/><path d="M743,169L743,100L702,116Z" fill="#a17137" stroke="#a17137" stroke-width="1.51"/><path d="M676,11L679,-90L637,-59Z" fill="#49454a" stroke="#49454a" stroke-width="1.51"/><path d="M730,-12L679,-90L676,11Z" fill="#4c484a" stroke="#4c484a" stroke-width="1.51"/><path d="M637,-59L679,-90L540,-62Z" fill="#43404a" stroke="#43404a" stroke-width="1.51"/><path d="M622,387L696,363L639,310Z" fill="#7e7338" stroke="#7e7338" stroke-width="1.51"/><path d="M696,318L756,237L697,224Z" fill="#7a6e3a" stroke="#7a6e3a" stroke-width="1.51"/><path d="M770,51L730,-12L670,47Z" fill="#6e5846" stroke="#6e5846" stroke-width="1.51"/><path d="M805,113L770,51L743,100Z" fill="#af7937" stroke="#af7937" stroke-width="1.51"/><path d="M758,314L756,237L696,318Z" fill="#837a37" stroke="#837a37" stroke-width="1.51"/><path d="M-84,189L-16,225L-24,198Z" fill="#3b384a" stroke="#3b384a" stroke-width="1.51"/><path d="M-64,354L-28,351L-16,308Z" fill="#57544a" stroke="#57544a" stroke-width="1.51"/><path d="M-16,308L-28,351L38,331Z" fill="#57544a" stroke="#57544a" stroke-width="1.51"/><path d="M-29,100L-84,189L-24,198Z" fill="#59404a" stroke="#59404a" stroke-width="1.51"/><path d="M-13,12L-73,72L-16,34Z" fill="#483751" stroke="#483751" stroke-width="1.51"/><path d="M-102,-32L-73,72L-13,12Z" fill="#2b2f54" stroke="#2b2f54" stroke-width="1.51"/><path d="M-102,123L-84,189L-29,100Z" fill="#6c464a" stroke="#6c464a" stroke-width="1.51"/><path d="M743,100L770,51L670,47Z" fill="#94693e" stroke="#94693e" stroke-width="1.51"/><path d="M805,113L743,100L743,169Z" fill="#a67536" stroke="#a67536" stroke-width="1.51"/><path d="M805,201L805,113L743,169Z" fill="#8e6e38" stroke="#8e6e38" stroke-width="1.51"/><path d="M762,360L758,314L696,318Z" fill="#877d36" stroke="#877d36" stroke-width="1.51"/><path d="M-84,189L-83,265L-16,225Z" fill="#423f4a" stroke="#423f4a" stroke-width="1.51"/><path d="M48,-94L-33,-87L36,-32Z" fill="#162b55" stroke="#162b55" stroke-width="1.51"/><path d="M-73,72L-102,123L-29,100Z" fill="#874e49" stroke="#874e49" stroke-width="1.51"/><path d="M-84,189L-102,123L-83,265Z" fill="#41394a" stroke="#41394a" stroke-width="1.51"/><path d="M-102,-32L-102,123L-73,72Z" fill="#593d50" stroke="#593d50" stroke-width="1.51"/><path d="M-83,265L-78,299L-16,308Z" fill="#55514a" stroke="#55514a" stroke-width="1.51"/><path d="M-28,351L-64,354L57,382Z" fill="#57544a" stroke="#57544a" stroke-width="1.51"/><path d="M-78,299L-64,354L-16,308Z" fill="#57544a" stroke="#57544a" stroke-width="1.51"/><path d="M805,201L743,169L756,237Z" fill="#70623b" stroke="#70623b" stroke-width="1.51"/><path d="M800,249L805,201L756,237Z" fill="#796d3a" stroke="#796d3a" stroke-width="1.51"/><path d="M835,-29L730,-12L770,51Z" fill="#595349" stroke="#595349" stroke-width="1.51"/><path d="M793,-85L749,-83L730,-12Z" fill="#534f4a" stroke="#534f4a" stroke-width="1.51"/><path d="M730,-12L749,-83L679,-90Z" fill="#4f4b4a" stroke="#4f4b4a" stroke-width="1.51"/><path d="M758,314L800,249L756,237Z" fill="#817738" stroke="#817738" stroke-width="1.51"/><path d="M696,363L762,360L696,318Z" fill="#847b37" stroke="#847b37" stroke-width="1.51"/><path d="M758,314L832,293L800,249Z" fill="#898036" stroke="#898036" stroke-width="1.51"/><path d="M622,387L762,360L696,363Z" fill="#837837" stroke="#837837" stroke-width="1.51"/><path d="M-33,-87L-82,-55L-13,12Z" fill="#002955" stroke="#002955" stroke-width="1.51"/><path d="M-82,-55L-102,-32L-13,12Z" fill="#002955" stroke="#002955" stroke-width="1.51"/><path d="M889,384L804,353L762,360Z" fill="#8d8534" stroke="#8d8534" stroke-width="1.51"/><path d="M762,360L804,353L758,314Z" fill="#8b8235" stroke="#8b8235" stroke-width="1.51"/><path d="M800,249L894,201L805,201Z" fill="#776a3a" stroke="#776a3a" stroke-width="1.51"/><path d="M805,113L838,42L770,51Z" fill="#9f733c" stroke="#9f733c" stroke-width="1.51"/><path d="M901,116L838,42L805,113Z" fill="#b57d35" stroke="#b57d35" stroke-width="1.51"/><path d="M894,201L805,113L805,201Z" fill="#886d39" stroke="#886d39" stroke-width="1.51"/><path d="M749,-83L793,-85L679,-90Z" fill="#514e4a" stroke="#514e4a" stroke-width="1.51"/><path d="M835,-29L793,-85L730,-12Z" fill="#56534a" stroke="#56534a" stroke-width="1.51"/><path d="M804,353L832,293L758,314Z" fill="#8d8534" stroke="#8d8534" stroke-width="1.51"/><path d="M838,42L835,-29L770,51Z" fill="#6e5d46" stroke="#6e5d46" stroke-width="1.51"/><path d="M804,353L868,309L832,293Z" fill="#8d8534" stroke="#8d8534" stroke-width="1.51"/><path d="M892,262L894,201L800,249Z" fill="#7c7139" stroke="#7c7139" stroke-width="1.51"/><path d="M838,42L894,-6L835,-29Z" fill="#5a5549" stroke="#5a5549" stroke-width="1.51"/><path d="M892,262L800,249L832,293Z" fill="#857a37" stroke="#857a37" stroke-width="1.51"/><path d="M894,201L901,116L805,113Z" fill="#9e7637" stroke="#9e7637" stroke-width="1.51"/><path d="M894,201L892,262L901,116Z" fill="#78673b" stroke="#78673b" stroke-width="1.51"/><path d="M868,309L892,262L832,293Z" fill="#8a8135" stroke="#8a8135" stroke-width="1.51"/><path d="M901,116L900,56L838,42Z" fill="#a1743b" stroke="#a1743b" stroke-width="1.51"/><path d="M835,-29L865,-81L793,-85Z" fill="#57544a" stroke="#57544a" stroke-width="1.51"/><path d="M894,-6L865,-81L835,-29Z" fill="#57544a" stroke="#57544a" stroke-width="1.51"/><path d="M900,56L894,-6L838,42Z" fill="#786145" stroke="#786145" stroke-width="1.51"/><path d="M868,309L889,384L892,262Z" fill="#8d8534" stroke="#8d8534" stroke-width="1.51"/><path d="M892,262L889,384L901,116Z" fill="#817638" stroke="#817638" stroke-width="1.51"/><path d="M804,353L889,384L868,309Z" fill="#8d8534" stroke="#8d8534" stroke-width="1.51"/><path d="M622,387L889,384L762,360Z" fill="#888036" stroke="#888036" stroke-width="1.51"/><path d="M571,395L889,384L622,387Z" fill="#837837" stroke="#837837" stroke-width="1.51"/></svg>